<?xml version="1.0" encoding="iso-8859-1"?>
<!-- Generator: Adobe Illustrator 19.0.0, SVG Export Plug-In . SVG Version: 6.00 Build 0)  -->
<svg version="1.1" id="Capa_1" xmlns="http://www.w3.org/2000/svg" xmlns:xlink="http://www.w3.org/1999/xlink" x="0px" y="0px"
	 viewBox="0 0 512 512" style="enable-background:new 0 0 512 512;" xml:space="preserve">
<g>
	<path style="fill:#ECF0F1;" d="M293.87,71.228l19.597-11.211c8.145-4.679,18.162-4.679,26.306,0l158.897,90.836
		c4.7,2.688,8.459,6.756,10.77,11.652l2.56,18.45l-141.241,70.621L293.87,71.228z"/>
	<path style="fill:#E6E7E8;" d="M218.13,440.662l95.338,54.554c4.006,2.294,8.537,3.511,13.153,3.531V375.161l44.138-132.414
		L220.69,180.955L218.13,440.662z"/>
	<path style="fill:#BDC3C7;" d="M512,173.804v207.625c0.003,9.49-5.086,18.252-13.33,22.952l-158.897,90.836
		c-4.005,2.294-8.537,3.511-13.153,3.531V378.692l44.138-137.004l138.681-79.183C511.138,166.029,512.013,169.893,512,173.804
		L512,173.804z"/>
	<path style="fill:#2C3E50;" d="M370.759,130.549v207.537c-0.017,9.507-5.096,18.286-13.33,23.04l-158.897,90.748
		c-8.137,4.708-18.169,4.708-26.306,0L13.33,361.126C5.096,356.372,0.017,347.593,0,338.086V130.549
		c-0.013-3.94,0.862-7.832,2.56-11.388h6.268c1.412,0.794,171.961,100.281,176.552,100.281c3.707,0,115.289-84.657,158.897-109.109
		c9.799-5.473,23.835,8.828,23.835,8.828h0.088C369.897,122.717,370.772,126.609,370.759,130.549L370.759,130.549z"/>
	<path style="fill:#556080;" d="M185.379,219.443v235.961c-4.621,0.022-9.164-1.197-13.153-3.531L13.33,361.126
		C5.096,356.372,0.017,347.593,0,338.086V130.549c-0.013-3.94,0.862-7.832,2.56-11.388h6.268
		C10.209,119.939,180.807,219.443,185.379,219.443z"/>
	<path style="fill:#35495E;" d="M368.111,119.161l-169.313,96.75c-8.326,4.708-18.51,4.708-26.836,0L2.648,119.161
		c2.274-4.893,6.005-8.963,10.681-11.652l158.897-90.748c8.145-4.678,18.161-4.678,26.306,0l158.897,90.748
		C362.106,110.199,365.837,114.269,368.111,119.161L368.111,119.161z"/>
	<g>
		<ellipse style="fill:#B0D3F0;" cx="52.966" cy="212.248" rx="17.655" ry="26.483"/>
		<ellipse style="fill:#B0D3F0;" cx="132.414" cy="265.214" rx="17.655" ry="26.483"/>
		<ellipse style="fill:#B0D3F0;" cx="132.414" cy="362.317" rx="17.655" ry="26.483"/>
		<ellipse style="fill:#B0D3F0;" cx="52.966" cy="309.352" rx="17.655" ry="26.483"/>
	</g>
	<g>
		<ellipse style="fill:#90BAE1;" cx="317.793" cy="221.076" rx="17.655" ry="26.483"/>
		<ellipse style="fill:#90BAE1;" cx="238.345" cy="353.49" rx="17.655" ry="26.483"/>
	</g>
	<ellipse style="fill:#B0D3F0;" cx="185.379" cy="115.145" rx="26.483" ry="17.655"/>
	<g>
		<ellipse style="fill:#7F8C8D;" cx="423.724" cy="331.023" rx="17.655" ry="26.483"/>
		<ellipse style="fill:#7F8C8D;" cx="397.242" cy="163.299" rx="26.483" ry="17.655"/>
	</g>
</g>
<g>
</g>
<g>
</g>
<g>
</g>
<g>
</g>
<g>
</g>
<g>
</g>
<g>
</g>
<g>
</g>
<g>
</g>
<g>
</g>
<g>
</g>
<g>
</g>
<g>
</g>
<g>
</g>
<g>
</g>
</svg>
